<svg width="21" height="23" viewBox="0 0 21 23" fill="none" xmlns="http://www.w3.org/2000/svg">
<path d="M10.08 0C9.73687 0 9.39563 0.0862502 9.08813 0.25875L1.00313 4.80188C0.388125 5.14875 0 5.79563 0 6.49687V15.5831C0 16.2862 0.388125 16.9331 1.00313 17.28L9.08813 21.8212C9.70312 22.1681 10.4569 22.1681 11.0719 21.8212L19.1569 17.28C19.7738 16.9331 20.16 16.2844 20.16 15.5831V6.49687C20.16 5.79563 19.7719 5.14875 19.1569 4.80188L11.0719 0.25875C10.7644 0.0862502 10.4231 0 10.08 0ZM10.08 0.96C10.26 0.96 10.4419 1.005 10.6031 1.095L18.6881 5.63812C19.0087 5.82 19.2 6.14625 19.2 6.49687V10.56H18.24V9.6H17.28V10.56H16.32V11.52H17.28V12.48H18.24V11.52H19.2V15.5831C19.2 15.9338 19.0087 16.26 18.6862 16.4419L10.6031 20.985C10.2806 21.165 9.87937 21.165 9.55688 20.985L1.47375 16.4419C1.15125 16.26 0.96 15.9356 0.96 15.5831V6.49687C0.96 6.14625 1.15125 5.82 1.47375 5.63812L9.55688 1.095C9.71813 1.005 9.9 0.96 10.08 0.96ZM10.08 4.8C6.64313 4.8 3.84 7.60313 3.84 11.04C3.84 14.4769 6.64313 17.28 10.08 17.28C12.0431 17.28 13.8656 16.365 15.0431 14.8144L15.3712 14.3812L12.465 12.6975L12.2025 12.9825C11.6606 13.575 10.8919 13.92 10.08 13.92C8.48812 13.92 7.2 12.6319 7.2 11.04C7.2 9.44812 8.48812 8.16 10.08 8.16C10.8919 8.16 11.6606 8.505 12.2025 9.0975L12.465 9.3825L15.3712 7.69875L15.0431 7.26562C13.8656 5.715 12.0431 4.8 10.08 4.8ZM10.08 5.76C11.5556 5.76 12.9056 6.39187 13.8937 7.44562L12.5775 8.20687C11.8837 7.59937 11.0212 7.2 10.08 7.2C7.96687 7.2 6.24 8.92687 6.24 11.04C6.24 13.1531 7.96687 14.88 10.08 14.88C11.0212 14.88 11.8837 14.4806 12.5775 13.8731L13.8937 14.6344C12.9056 15.6881 11.5556 16.32 10.08 16.32C7.16437 16.32 4.8 13.9556 4.8 11.04C4.8 8.12437 7.16437 5.76 10.08 5.76ZM13.92 9.6V10.56H12.96V11.52H13.92V12.48H14.88V11.52H15.84V10.56H14.88V9.6H13.92Z" fill="black"/>
</svg>
