<svg width="24" height="24" viewBox="0 0 24 24" fill="none" xmlns="http://www.w3.org/2000/svg">
<path d="M20.772 3.36426C20.6781 3.25037 20.5602 3.15865 20.4268 3.09568C20.2933 3.0327 20.1476 3.00003 20 3H5.99999C5.73477 3 5.48042 3.10536 5.29288 3.29289C5.10534 3.48043 4.99999 3.73478 4.99999 4C4.99999 4.26522 5.10534 4.51957 5.29288 4.70711C5.48042 4.89464 5.73477 5 5.99999 5H18.7861L18.0052 9H4.99999C4.73477 9 4.48042 9.10536 4.29288 9.29289C4.10534 9.48043 3.99999 9.73478 3.99999 10C3.99999 10.2652 4.10534 10.5196 4.29288 10.7071C4.48042 10.8946 4.73477 11 4.99999 11H17.6147L16.4521 16.9551L10.1289 18.9517L4.71874 17.2524L4.92235 16.1875C4.97207 15.9269 4.91626 15.6573 4.76718 15.4379C4.61811 15.2185 4.38798 15.0673 4.12743 15.0176C3.86687 14.9679 3.59723 15.0237 3.37783 15.1727C3.15843 15.3218 3.00723 15.5519 2.95751 15.8125L2.58739 17.7524C2.54154 17.9933 2.58572 18.2426 2.71155 18.4531C2.83738 18.6635 3.0361 18.8204 3.26999 18.894L9.83007 20.9541C10.0257 21.0155 10.2356 21.0153 10.4311 20.9536L17.6211 18.6836C17.7925 18.6294 17.9461 18.53 18.0658 18.3958C18.1854 18.2617 18.2668 18.0978 18.3013 17.9214L20.9814 4.19141C21.0097 4.04662 21.0056 3.89738 20.9694 3.75438C20.9331 3.61137 20.8657 3.47815 20.772 3.36426Z" fill="black"/>
</svg>
