<svg width="24" height="24" viewBox="0 0 24 24" fill="none" xmlns="http://www.w3.org/2000/svg">
<g clip-path="url(#clip0_51107_5128)">
<path d="M8.53854 5.156C7.884 5.029 7.13345 4.956 6.36327 4.956C5.54291 4.956 4.74218 5.039 3.97309 5.196L4.04618 5.184C2.89418 5.392 1.93527 6.022 1.35055 6.886L1.34073 6.902C1.02545 7.388 0.838909 7.973 0.838909 8.598C0.838909 8.774 0.854182 8.947 0.882545 9.116L0.880364 9.097C1.03309 10.065 1.38436 10.934 1.896 11.705L1.87745 11.675C1.91236 11.725 1.95709 11.766 2.00945 11.796L2.01164 11.797C2.06291 11.823 2.124 11.838 2.18836 11.838H2.20582H2.20473C2.29309 11.835 2.37273 11.799 2.42836 11.743C2.49055 11.692 2.52982 11.62 2.532 11.539C2.532 11.537 2.532 11.536 2.532 11.534C2.532 11.502 2.52655 11.471 2.51673 11.442L2.51782 11.444C2.50909 11.424 2.50364 11.401 2.50255 11.376C2.05527 10.719 1.73127 9.947 1.58509 9.121L1.57964 9.085C1.55455 8.948 1.53927 8.79 1.53927 8.629C1.53927 8.115 1.68764 7.633 1.94727 7.217L1.93964 7.231C2.47855 6.481 3.324 5.951 4.30909 5.788L4.33091 5.785C4.94182 5.663 5.64218 5.593 6.36109 5.593C7.08 5.593 7.78145 5.663 8.45673 5.796L8.39127 5.785H8.39564C8.41091 5.785 8.42509 5.79 8.436 5.799L8.45127 5.813H8.45782C8.55491 5.813 8.64109 5.777 8.70436 5.718C8.76873 5.66 8.808 5.579 8.808 5.49C8.808 5.488 8.808 5.487 8.808 5.486C8.808 5.481 8.808 5.475 8.808 5.469C8.808 5.393 8.77964 5.323 8.73273 5.267L8.73382 5.268C8.68473 5.215 8.61818 5.177 8.54291 5.16H8.54073L8.53854 5.156ZM3.65891 13.883C4.404 14.602 5.19055 15.266 6.02182 15.882L6.06764 15.915C6.85964 16.502 7.74327 17.065 8.67054 17.568L8.77309 17.62C9.84545 18.19 11.1022 18.732 12.4113 19.177L12.5847 19.229C13.6167 19.591 14.8331 19.89 16.0909 20.075L16.1989 20.088C16.7345 20.171 17.3509 20.218 17.9793 20.218C18.4593 20.218 18.9316 20.19 19.3953 20.137L19.3396 20.142C20.2451 20.047 21.0622 19.77 21.7713 19.352L21.7484 19.364C21.7876 19.328 21.8215 19.288 21.8509 19.244L21.8531 19.241C21.8815 19.199 21.8978 19.148 21.8978 19.094C21.8978 19.093 21.8978 19.092 21.8978 19.092C21.8978 19.091 21.8978 19.089 21.8978 19.088C21.8978 18.999 21.8585 18.918 21.7942 18.86C21.7309 18.801 21.6425 18.765 21.5455 18.765C21.5433 18.765 21.5422 18.765 21.5411 18.765C21.5084 18.769 21.4789 18.778 21.4527 18.793L21.4538 18.792C21.42 18.807 21.3916 18.825 21.3665 18.847C20.7284 19.22 19.9669 19.469 19.1498 19.541L19.1291 19.542C18.7811 19.579 18.3775 19.6 17.9695 19.6C17.3389 19.6 16.7204 19.55 16.1204 19.454L16.1847 19.462C14.8964 19.264 13.7564 18.98 12.6644 18.605L12.7931 18.644C11.4284 18.187 10.2611 17.667 9.16145 17.056L9.25309 17.103C8.21455 16.556 7.32545 16.001 6.48545 15.391L6.53127 15.423C5.676 14.803 4.91236 14.155 4.20764 13.457L4.19564 13.445C4.15855 13.411 4.11382 13.384 4.06473 13.366L4.06255 13.365C4.02327 13.349 3.97745 13.339 3.92945 13.338H3.92836C3.92727 13.338 3.92509 13.338 3.924 13.338C3.82691 13.338 3.73855 13.374 3.67527 13.433C3.61091 13.491 3.57164 13.572 3.57164 13.661V13.665C3.57164 13.705 3.58255 13.742 3.60218 13.775L3.60109 13.774L3.65891 13.883ZM20.8865 13.474C21.8705 12.494 22.6342 11.314 23.0978 10.009L23.1185 9.942C23.2604 9.577 23.3422 9.155 23.3422 8.716C23.3422 8.061 23.16 7.445 22.8404 6.908L22.8513 6.928C22.4324 6.279 21.8084 5.777 21.0611 5.491L21.036 5.483C20.1927 5.155 19.212 4.965 18.1833 4.965C18.1713 4.965 18.1593 4.965 18.1484 4.965H18.1505C18.1473 4.965 18.1429 4.965 18.1385 4.965C18.048 4.965 17.9673 5.002 17.9127 5.06C17.8582 5.119 17.8255 5.197 17.8255 5.281V5.293V5.292V5.303C17.8255 5.387 17.8582 5.464 17.9138 5.524V5.523C17.9684 5.582 18.0491 5.618 18.1396 5.618H18.1527H18.1516C18.2062 5.616 18.2716 5.616 18.336 5.616C19.1913 5.616 20.0084 5.772 20.7524 6.055L20.7109 6.041C21.3589 6.287 21.888 6.697 22.2502 7.215L22.2578 7.227C22.4989 7.659 22.6407 8.17 22.6407 8.71C22.6407 9.117 22.56 9.507 22.4138 9.868L22.4215 9.845C21.9698 11.092 21.2727 12.165 20.3771 13.068L20.3836 13.061L20.3247 13.17C20.3062 13.202 20.2953 13.239 20.2953 13.279V13.283C20.2953 13.372 20.3345 13.453 20.3989 13.511C20.4622 13.57 20.5505 13.606 20.6476 13.606H20.652H20.6607C20.7131 13.606 20.7611 13.591 20.8015 13.565H20.8004C20.8353 13.541 20.8735 13.518 20.9149 13.499L20.9193 13.497L20.8865 13.474ZM15.144 5.266C13.8425 5.549 12.7298 5.881 11.6596 6.285L11.8124 6.234C10.632 6.674 9.64364 7.127 8.69891 7.639L8.808 7.584C7.50764 8.273 6.38291 9.008 5.34327 9.829L5.37273 9.807C4.41709 10.554 3.56836 11.367 2.81455 12.25L2.784 12.287C2.15891 13.012 1.632 13.845 1.24691 14.743L1.22182 14.809C0.988364 15.328 0.852 15.932 0.852 16.564C0.852 16.773 0.867273 16.979 0.895636 17.18L0.892364 17.156C0.913091 17.231 0.954545 17.296 1.01127 17.347C1.06909 17.397 1.14655 17.427 1.23273 17.427H1.25127H1.25018H1.25673C1.35382 17.427 1.44109 17.391 1.50436 17.333C1.56873 17.275 1.608 17.194 1.608 17.105C1.608 17.103 1.608 17.102 1.608 17.101V17.047C1.59055 16.908 1.58073 16.746 1.58073 16.582C1.58073 15.987 1.71273 15.42 1.95273 14.905L1.94073 14.933C2.33018 14.036 2.82982 13.261 3.43855 12.57L3.42436 12.587C4.18255 11.719 5.00182 10.951 5.89636 10.262L5.92364 10.242C6.90436 9.48 7.99309 8.773 9.14727 8.156L9.25527 8.102C10.0342 7.672 10.9527 7.247 11.9051 6.882L12.048 6.834C12.9011 6.501 13.9331 6.188 14.9956 5.948L15.1418 5.92C15.2673 5.898 15.3775 5.85 15.4691 5.781L15.468 5.782C15.5225 5.729 15.5553 5.658 15.5553 5.579C15.5553 5.573 15.5553 5.568 15.5553 5.562V5.563C15.552 5.482 15.5127 5.409 15.4516 5.358C15.396 5.301 15.3175 5.265 15.2291 5.263H15.1418L15.144 5.266ZM6.84327 19.142C7.34618 20.522 8.11854 21.709 9.11236 22.709L9.10473 22.701C9.83345 23.47 10.8905 23.963 12.0742 23.996H12.0807C12.9349 23.988 13.7215 23.723 14.3509 23.281L14.3422 23.287C15.1145 22.75 15.7516 22.089 16.2284 21.333L16.2469 21.301C16.2622 21.275 16.2775 21.243 16.2895 21.211L16.2916 21.206C16.3015 21.179 16.3069 21.148 16.3069 21.116C16.3069 21.114 16.3069 21.112 16.3069 21.11C16.3069 21.109 16.3069 21.107 16.3069 21.106C16.3069 21.017 16.2676 20.936 16.2033 20.878C16.14 20.819 16.0516 20.783 15.9545 20.783C15.9535 20.783 15.9513 20.783 15.9502 20.783C15.9491 20.783 15.9491 20.783 15.948 20.783C15.8891 20.783 15.8335 20.798 15.7855 20.825L15.7865 20.824C15.732 20.856 15.6873 20.897 15.6545 20.945L15.6535 20.947C15.2116 21.651 14.6498 22.244 13.9865 22.724L13.9724 22.734C13.4564 23.108 12.7996 23.337 12.0851 23.348H12.0829C11.0564 23.302 10.152 22.858 9.54327 22.181L9.53891 22.175C8.664 21.267 7.97782 20.184 7.55127 18.994L7.53164 18.929C7.48909 18.872 7.44 18.823 7.38436 18.78L7.38327 18.779C7.32873 18.737 7.25782 18.711 7.18036 18.711C7.17818 18.711 7.176 18.711 7.17491 18.711C7.08654 18.714 7.00691 18.75 6.95127 18.806C6.88691 18.864 6.84764 18.945 6.84764 19.034V19.038V19.147L6.84327 19.142ZM17.5538 18.57C17.8287 17.791 18.0676 16.852 18.2247 15.889L18.2378 15.789C18.3895 14.889 18.4756 13.851 18.4756 12.795C18.4756 12.783 18.4756 12.772 18.4756 12.76V12.762V12.602C18.4756 12.579 18.4756 12.553 18.4756 12.526C18.4756 11.208 18.3458 9.918 18.0971 8.667L18.1189 8.798C17.8811 7.554 17.5298 6.451 17.064 5.402L17.1076 5.512C16.692 4.553 16.1662 3.725 15.528 2.982L15.5455 3.003C15.0262 2.38 14.3629 1.881 13.5993 1.543L13.5676 1.53C13.5491 1.513 13.524 1.503 13.4956 1.503C13.4945 1.503 13.4935 1.503 13.4935 1.503H13.4193C13.416 1.503 13.4116 1.503 13.4073 1.503C13.3156 1.503 13.2316 1.533 13.1662 1.584H13.1673C13.1029 1.634 13.0636 1.709 13.0636 1.791V1.803V1.802V1.81C13.0636 1.878 13.0855 1.942 13.1236 1.995L13.1225 1.994C13.1575 2.044 13.2087 2.082 13.2687 2.102L13.2709 2.103C13.9985 2.431 14.6029 2.898 15.0622 3.468L15.072 3.48C15.6349 4.16 16.1149 4.938 16.4749 5.773L16.5 5.839C16.8949 6.729 17.2255 7.777 17.436 8.862L17.4513 8.959C17.6695 10.031 17.7938 11.264 17.7938 12.524V12.604V12.6V12.76V12.78C17.7938 13.813 17.7076 14.827 17.5407 15.816L17.556 15.706C17.3782 16.78 17.1295 17.727 16.8033 18.642L16.8425 18.515L16.872 18.435V18.462V18.466C16.872 18.555 16.9113 18.636 16.9756 18.694C17.0389 18.753 17.1273 18.789 17.2244 18.789H17.2287H17.2342C17.3116 18.789 17.3825 18.763 17.4382 18.721C17.4905 18.684 17.5309 18.635 17.556 18.579L17.5571 18.577L17.5538 18.57ZM24.1593 18.242C24.1593 18.236 24.1593 18.229 24.1593 18.222C24.1593 17.807 23.9716 17.432 23.6695 17.164C23.3716 16.886 22.9582 16.714 22.5 16.714C22.4869 16.714 22.4749 16.714 22.4618 16.714H22.464C22.4575 16.714 22.4509 16.714 22.4433 16.714C21.9895 16.714 21.5804 16.887 21.2891 17.164C20.9869 17.432 20.7982 17.807 20.7982 18.222V18.243V18.242V18.274C20.7982 18.694 20.9858 19.074 21.2891 19.346C21.5815 19.624 21.9905 19.797 22.4444 19.797H22.4662H22.4651H22.5011C22.9593 19.797 23.3727 19.625 23.6705 19.347C23.9727 19.074 24.1604 18.695 24.1604 18.276C24.1604 18.264 24.1604 18.251 24.1604 18.239V18.241L24.1593 18.242ZM23.4447 18.242V18.262C23.4447 18.505 23.3367 18.724 23.1622 18.882C22.9898 19.042 22.7509 19.141 22.4858 19.141C22.4782 19.141 22.4705 19.141 22.4629 19.141H22.464C22.4629 19.141 22.4618 19.141 22.4607 19.141C22.1945 19.141 21.9545 19.042 21.78 18.882C21.5967 18.726 21.4822 18.505 21.4822 18.258C21.4822 18.252 21.4822 18.246 21.4822 18.241V18.242C21.4833 17.995 21.5967 17.772 21.7789 17.615C21.9502 17.447 22.1935 17.343 22.4629 17.342H22.4804C22.7487 17.342 22.9909 17.447 23.16 17.614L23.1611 17.615C23.3356 17.775 23.4436 17.996 23.4436 18.24V18.242H23.4447ZM1.69527 19.801H1.716C2.16873 19.801 2.57782 19.629 2.87018 19.352C3.17345 19.079 3.36218 18.699 3.36218 18.279C3.36218 18.268 3.36218 18.256 3.36218 18.245V18.247C3.36218 18.241 3.36218 18.235 3.36218 18.228C3.36218 17.812 3.17345 17.437 2.87127 17.17C2.57891 16.893 2.16982 16.72 1.71709 16.72C1.70945 16.72 1.70182 16.72 1.69418 16.72H1.69527C1.68436 16.72 1.67236 16.72 1.66036 16.72C1.20218 16.72 0.787636 16.892 0.490909 17.17C0.188727 17.438 0 17.813 0 18.228V18.249V18.248V18.28C0 18.7 0.187636 19.08 0.490909 19.352C0.788727 19.629 1.20218 19.801 1.65927 19.801H1.69745H1.69527ZM1.69527 19.146C1.68873 19.146 1.68109 19.146 1.67345 19.146C1.40836 19.146 1.16945 19.047 0.997091 18.887C0.822545 18.729 0.714545 18.51 0.714545 18.267C0.714545 18.26 0.714545 18.253 0.714545 18.246V18.247C0.714545 18.246 0.714545 18.245 0.714545 18.244C0.714545 18 0.822545 17.78 0.997091 17.62C1.16727 17.452 1.40836 17.347 1.67782 17.347H1.69636H1.69527C1.96473 17.348 2.208 17.452 2.37927 17.619C2.56255 17.776 2.676 17.999 2.67709 18.246V18.262C2.67709 18.508 2.56255 18.73 2.38036 18.885L2.37927 18.886C2.20473 19.044 1.96582 19.141 1.70182 19.141C1.69964 19.141 1.69745 19.141 1.69527 19.141V19.146ZM12.0807 3.082H12.1167C12.5749 3.082 12.9884 2.91 13.2862 2.632C13.5895 2.364 13.7782 1.989 13.7782 1.573C13.7782 1.566 13.7782 1.56 13.7782 1.553V1.554C13.7782 1.544 13.7782 1.533 13.7782 1.521C13.7782 1.101 13.5905 0.722001 13.2873 0.449001C12.9895 0.171001 12.576 -0.000999451 12.1178 -0.000999451C12.1047 -0.000999451 12.0927 -0.000999451 12.0796 -0.000999451H12.0818C12.0753 -0.000999451 12.0687 -0.000999451 12.0611 -0.000999451C11.6073 -0.000999451 11.1982 0.172001 10.9069 0.449001C10.6036 0.722001 10.416 1.101 10.416 1.521V1.556V1.554V1.573C10.416 1.989 10.6047 2.364 10.9069 2.631C11.1993 2.908 11.6084 3.081 12.0611 3.081H12.0796H12.0785L12.0807 3.082ZM12.0807 2.428C12.0785 2.428 12.0753 2.428 12.0731 2.428C11.8135 2.428 11.5789 2.329 11.412 2.169C11.2375 2.016 11.1295 1.801 11.1295 1.563C11.1295 1.56 11.1295 1.558 11.1295 1.555C11.1295 1.549 11.1295 1.542 11.1295 1.535C11.1295 1.292 11.2375 1.073 11.412 0.915001C11.5789 0.755001 11.8135 0.656001 12.0731 0.656001H12.0818H12.1036C12.3687 0.656001 12.6076 0.755001 12.78 0.915001C12.9545 1.073 13.0625 1.292 13.0625 1.535V1.556V1.555V1.562C13.0625 1.8 12.9545 2.015 12.78 2.168C12.6076 2.329 12.3676 2.428 12.1025 2.428C12.0949 2.428 12.0873 2.428 12.0807 2.428H12.0818H12.0807ZM12.3491 13.692C12.3109 13.709 12.2673 13.719 12.2204 13.719C12.2193 13.719 12.2171 13.719 12.216 13.719H12.0796C12.0742 13.719 12.0676 13.719 12.06 13.719C11.7295 13.719 11.4305 13.594 11.2167 13.392C10.9964 13.196 10.86 12.922 10.86 12.618C10.86 12.612 10.86 12.606 10.86 12.599V12.6C10.86 12.593 10.86 12.585 10.86 12.577C10.86 12.279 10.9975 12.011 11.2167 11.823L11.2178 11.822C11.4338 11.628 11.7305 11.508 12.0578 11.508H12.0818H12.0807H12.1036C12.3895 11.508 12.6513 11.601 12.8564 11.755L12.8542 11.754C13.0593 11.902 13.2065 12.109 13.2687 12.347L13.2698 12.354V12.365C13.2698 12.409 13.2753 12.452 13.2851 12.494L13.284 12.49C13.2938 12.523 13.2993 12.56 13.2993 12.599V12.62C13.2993 12.882 13.1978 13.122 13.0298 13.31L13.0309 13.308C12.8618 13.5 12.6262 13.638 12.3556 13.69L12.348 13.691L12.3491 13.692Z" fill="black"/>
</g>
<defs>
<clipPath id="clip0_51107_5128">
<rect width="24" height="24" fill="white"/>
</clipPath>
</defs>
</svg>
