<svg width="24" height="24" viewBox="0 0 24 24" fill="none" xmlns="http://www.w3.org/2000/svg">
<path d="M12.96 1.44C12.8327 1.44003 12.7106 1.49061 12.6206 1.58063L2.54062 11.6606C2.45063 11.7506 2.40009 11.8727 2.40009 12C2.40009 12.1273 2.45063 12.2494 2.54062 12.3394L5.42062 15.2194C5.51064 15.3094 5.63271 15.3599 5.75999 15.3599C5.88728 15.3599 6.00935 15.3094 6.09937 15.2194L19.0594 2.25938C19.1265 2.19224 19.1721 2.10672 19.1906 2.01363C19.2091 1.92053 19.1996 1.82404 19.1633 1.73635C19.127 1.64866 19.0655 1.57371 18.9866 1.52096C18.9077 1.46821 18.8149 1.44004 18.72 1.44H12.96ZM13.1587 2.4H17.5612L5.75999 14.2013L3.55874 12L13.1587 2.4ZM13.44 10.56C13.3127 10.56 13.1906 10.6106 13.1006 10.7006L7.34062 16.4606C7.25063 16.5506 7.20009 16.6727 7.20009 16.8C7.20009 16.9273 7.25063 17.0494 7.34062 17.1394L10.2206 20.0194L13.1006 22.8994C13.1906 22.9894 13.3127 23.04 13.44 23.04H19.2C19.2949 23.04 19.3877 23.0118 19.4666 22.959C19.5455 22.9063 19.607 22.8313 19.6433 22.7436C19.6796 22.656 19.6891 22.5595 19.6706 22.4664C19.6521 22.3733 19.6065 22.2878 19.5394 22.2206L14.1187 16.8L19.5394 11.3794C19.6065 11.3122 19.6521 11.2267 19.6706 11.1336C19.6891 11.0405 19.6796 10.944 19.6433 10.8564C19.607 10.7687 19.5455 10.6937 19.4666 10.641C19.3877 10.5882 19.2949 10.56 19.2 10.56H13.44ZM13.6387 11.52H18.0412L10.56 19.0013L8.35874 16.8L13.6387 11.52ZM13.44 17.4788L18.0412 22.08H13.6387L11.2387 19.68L13.44 17.4788Z" fill="black"/>
</svg>
