<svg width="24" height="24" viewBox="0 0 24 24" fill="none" xmlns="http://www.w3.org/2000/svg">
<path d="M12 1.92001C12.2719 1.92001 12.5269 2.02501 12.7181 2.21813L21.7819 11.2819C22.1794 11.6775 22.1794 12.3225 21.7819 12.7181L12.7181 21.7819C12.5269 21.975 12.2719 22.08 12 22.08C11.7281 22.08 11.4731 21.975 11.2819 21.7819L2.21812 12.7181C1.82062 12.3225 1.82062 11.6775 2.21812 11.2819L8.13187 5.36813L9.22312 6.45938C8.96062 7.43438 9.22499 8.49751 9.96374 9.23626C10.14 9.41251 10.3406 9.56438 10.56 9.69001V14.3119C9.68624 14.8163 9.11999 15.7556 9.11999 16.8C9.11999 18.3881 10.4119 19.68 12 19.68C13.5881 19.68 14.88 18.3881 14.88 16.8C14.88 15.7556 14.3137 14.8163 13.44 14.3119V10.6763L14.0231 11.2594C13.7606 12.2344 14.025 13.2975 14.7637 14.0363C15.3075 14.58 16.0312 14.88 16.8 14.88C17.5687 14.88 18.2925 14.58 18.8362 14.0363C19.9594 12.9131 19.9594 11.0869 18.8362 9.96376C18.2944 9.42188 17.5762 9.12376 16.8094 9.12376C16.5562 9.12376 16.3031 9.15751 16.0594 9.22313L14.7769 7.94063C15.0394 6.96563 14.775 5.90251 14.0362 5.16376C13.4944 4.62188 12.7762 4.32376 12.0094 4.32376C11.7562 4.32376 11.5031 4.35751 11.2594 4.42313L10.1681 3.33188L11.2819 2.21813C11.4731 2.02501 11.7281 1.92001 12 1.92001ZM12 0.960007C11.4937 0.960007 10.9875 1.15313 10.6031 1.53938L8.81062 3.33188L11.0287 5.55001C11.3306 5.37376 11.67 5.28376 12.0094 5.28376C12.4969 5.28376 12.9844 5.46938 13.3575 5.84251C13.9894 6.47438 14.0812 7.43438 13.6481 8.16938L15.8287 10.35C16.1306 10.1738 16.47 10.0838 16.8094 10.0838C17.2969 10.0838 17.7844 10.2694 18.1575 10.6425C18.9075 11.3925 18.9075 12.6075 18.1575 13.3575C17.7825 13.7325 17.2912 13.92 16.8 13.92C16.3087 13.92 15.8175 13.7325 15.4425 13.3575C14.8106 12.7256 14.7187 11.7656 15.1519 11.0288L12.9712 8.84813C12.8156 8.94001 12.6506 9.00751 12.48 9.05063V14.9475C13.3069 15.1613 13.92 15.9056 13.92 16.8C13.92 17.8613 13.0612 18.72 12 18.72C10.9406 18.72 10.08 17.8613 10.08 16.8C10.08 15.9056 10.6931 15.1613 11.52 14.9475V9.05063C11.1994 8.96813 10.8937 8.80876 10.6425 8.55751C10.0106 7.92563 9.91874 6.96563 10.3519 6.23063L8.13187 4.01063L1.53937 10.6031C0.766866 11.3738 0.766866 12.6263 1.53937 13.3969L10.6031 22.4606C10.9875 22.8469 11.4937 23.04 12 23.04C12.5062 23.04 13.0125 22.8469 13.3969 22.4606L22.4606 13.3969C23.2331 12.6263 23.2331 11.3738 22.4606 10.6031L13.3969 1.53938C13.0125 1.15313 12.5062 0.960007 12 0.960007Z" fill="black"/>
</svg>
