<svg width="24" height="24" viewBox="0 0 24 24" fill="none" xmlns="http://www.w3.org/2000/svg">
<path d="M3.20064 1.92C2.49939 1.92 1.92001 2.49938 1.92001 3.20063V20.7994C1.92001 21.5006 2.49939 22.08 3.20064 22.08H20.7994C21.5006 22.08 22.08 21.5025 22.08 20.7994V3.20063C22.08 2.49938 21.5025 1.92 20.7994 1.92H3.20064ZM3.20064 2.88H20.7994C20.9775 2.88 21.12 3.0225 21.12 3.20063V20.7994C21.12 20.9775 20.9775 21.12 20.7994 21.12H3.20064C3.02251 21.12 2.88001 20.9775 2.88001 20.7994V3.20063C2.88001 3.0225 3.02251 2.88 3.20064 2.88ZM11.04 11.04V17.0756C11.04 18.0019 10.6894 18.24 10.08 18.24C9.44251 18.24 9.00001 17.8425 8.70751 17.3269L7.20001 18.24C7.63689 19.1644 8.70751 20.16 10.1925 20.16C11.835 20.16 12.96 19.2862 12.96 17.3681V11.04H11.04ZM17.0175 11.04C15.3825 11.04 14.3344 12.0863 14.3344 13.4606C14.3344 14.9513 15.2138 15.6562 16.5356 16.2188L16.9931 16.4156C17.8275 16.7812 18.24 17.0044 18.24 17.6325C18.24 18.1556 17.8425 18.5344 17.0831 18.5344C16.1794 18.5344 15.7519 17.9212 15.36 17.28L13.92 18.24C14.4581 19.3031 15.4238 20.16 17.1244 20.16C18.8644 20.16 20.16 19.2563 20.16 17.6081C20.16 16.0781 19.2825 15.3975 17.7244 14.73L17.2669 14.535C16.4813 14.1938 16.14 13.9725 16.14 13.4231C16.14 12.9788 16.4813 12.6375 17.0175 12.6375C17.5444 12.6375 17.8819 12.8606 18.195 13.4231L19.6219 12.5081C19.02 11.445 18.1819 11.04 17.0175 11.04Z" fill="black"/>
</svg>
