<svg width="24" height="24" viewBox="0 0 24 24" fill="none" xmlns="http://www.w3.org/2000/svg">
<path d="M17.76 0C17.16 0 16.6489 0.242283 16.3209 0.61125C15.993 0.980217 15.84 1.45333 15.84 1.92C15.84 2.38667 15.993 2.85978 16.3209 3.22875C16.6489 3.59772 17.16 3.84 17.76 3.84C18.36 3.84 18.8711 3.59772 19.1991 3.22875C19.527 2.85978 19.68 2.38667 19.68 1.92C19.68 1.45333 19.527 0.980217 19.1991 0.61125C18.8711 0.242283 18.36 0 17.76 0ZM17.76 0.96C18.12 0.96 18.3289 1.07772 18.4809 1.24875C18.633 1.41978 18.72 1.66667 18.72 1.92C18.72 2.17333 18.633 2.42022 18.4809 2.59125C18.3289 2.76228 18.12 2.88 17.76 2.88C17.4 2.88 17.1911 2.76228 17.0391 2.59125C16.887 2.42022 16.8 2.17333 16.8 1.92C16.8 1.66667 16.887 1.41978 17.0391 1.24875C17.1911 1.07772 17.4 0.96 17.76 0.96ZM4.56 1.44C4.04 1.44 3.58891 1.65228 3.30094 1.97625C3.01297 2.30022 2.88 2.71333 2.88 3.12C2.88 3.52667 3.01297 3.93978 3.30094 4.26375C3.58891 4.58772 4.04 4.8 4.56 4.8C5.08 4.8 5.5311 4.58772 5.81907 4.26375C6.10704 3.93978 6.24 3.52667 6.24 3.12C6.24 2.71333 6.10704 2.30022 5.81907 1.97625C5.5311 1.65228 5.08 1.44 4.56 1.44ZM4.56 2.4C4.84 2.4 4.98891 2.48772 5.10094 2.61375C5.21297 2.73978 5.28 2.92667 5.28 3.12C5.28 3.31333 5.21297 3.50022 5.10094 3.62625C4.98891 3.75228 4.84 3.84 4.56 3.84C4.28001 3.84 4.1311 3.75228 4.01907 3.62625C3.90704 3.50022 3.84 3.31333 3.84 3.12C3.84 2.92667 3.90704 2.73978 4.01907 2.61375C4.1311 2.48772 4.28001 2.4 4.56 2.4ZM12 3.3375C8.28366 3.3375 5.11286 5.6659 3.87094 8.93719C3.83137 9.04079 3.82889 9.1549 3.86392 9.26013C3.89895 9.36535 3.96934 9.4552 4.06312 9.51441C4.1569 9.57361 4.26828 9.59852 4.37835 9.5849C4.48841 9.57128 4.59036 9.51997 4.66688 9.43969C6.10525 7.93515 8.84228 6.85125 12 6.85125C15.1577 6.85125 17.8948 7.93515 19.3331 9.43969C19.4096 9.51967 19.5114 9.57076 19.6213 9.58431C19.7312 9.59785 19.8423 9.57301 19.936 9.514C20.0296 9.45499 20.1 9.36543 20.1352 9.26049C20.1704 9.15554 20.1682 9.04166 20.1291 8.93812C18.8872 5.66635 15.7163 3.3375 12 3.3375ZM12 4.2975C14.5418 4.2975 16.7702 5.52877 18.1772 7.40719C16.5108 6.46532 14.3709 5.89125 12 5.89125C9.62915 5.89125 7.48918 6.46532 5.82282 7.40719C7.22983 5.52884 9.4582 4.2975 12 4.2975ZM4.32375 14.3897C4.24566 14.389 4.16858 14.4074 4.09921 14.4433C4.02983 14.4791 3.97025 14.5314 3.92564 14.5955C3.88103 14.6596 3.85273 14.7336 3.8432 14.8111C3.83366 14.8886 3.84319 14.9673 3.87094 15.0403C5.11285 18.3121 8.2837 20.64 12 20.64C15.7163 20.64 18.8872 18.3121 20.1291 15.0403C20.1686 14.9367 20.1711 14.8226 20.1361 14.7174C20.1011 14.6121 20.0307 14.5223 19.9369 14.4631C19.8431 14.4039 19.7317 14.379 19.6217 14.3926C19.5116 14.4062 19.4096 14.4575 19.3331 14.5378C17.8948 16.0423 15.1577 17.1262 12 17.1262C8.84228 17.1262 6.10525 16.0423 4.66688 14.5378C4.6225 14.4914 4.56926 14.4544 4.51032 14.429C4.45139 14.4035 4.38795 14.3902 4.32375 14.3897ZM5.82188 16.5694C7.4884 17.5116 9.62861 18.0863 12 18.0863C14.3714 18.0863 16.5116 17.5116 18.1781 16.5694C16.7712 18.4487 14.5426 19.68 12 19.68C9.45742 19.68 7.2288 18.4487 5.82188 16.5694ZM5.52 19.68C4.84001 19.68 4.26891 19.9523 3.90094 20.3662C3.53297 20.7802 3.36 21.3133 3.36 21.84C3.36 22.3667 3.53297 22.8998 3.90094 23.3137C4.26891 23.7277 4.84001 24 5.52 24C6.2 24 6.7711 23.7277 7.13907 23.3137C7.50704 22.8998 7.68 22.3667 7.68 21.84C7.68 21.3133 7.50704 20.7802 7.13907 20.3662C6.7711 19.9523 6.2 19.68 5.52 19.68ZM5.52 20.64C5.96 20.64 6.22891 20.7877 6.42094 21.0037C6.61297 21.2198 6.72 21.5267 6.72 21.84C6.72 22.1533 6.61297 22.4602 6.42094 22.6762C6.22891 22.8923 5.96 23.04 5.52 23.04C5.08001 23.04 4.8111 22.8923 4.61907 22.6762C4.42704 22.4602 4.32 22.1533 4.32 21.84C4.32 21.5267 4.42704 21.2198 4.61907 21.0037C4.8111 20.7877 5.08001 20.64 5.52 20.64Z" fill="black"/>
</svg>
