<svg width="24" height="24" viewBox="0 0 24 24" fill="none" xmlns="http://www.w3.org/2000/svg">
<path d="M16.7531 0.960007C15.7744 0.960007 14.9269 1.22438 14.34 1.48501C13.7644 1.29188 12.81 0.961882 11.6644 1.20001C10.9969 1.31626 10.3838 1.59188 9.82126 2.01376C8.89501 1.56751 7.92751 1.29376 6.91313 1.24876C6.28876 1.20001 3.74438 1.48876 2.83126 2.83126C2.49563 3.36001 2.16001 4.03126 2.01564 4.84688C1.87126 5.56688 1.87126 6.38438 2.11126 8.06438C2.25563 9.21563 2.44876 9.98438 2.88001 11.5669C2.92876 11.7113 3.16876 12.48 3.88876 14.5931C4.03126 14.9756 4.32001 15.6956 4.89563 16.3669C5.28001 16.8469 5.66438 17.1356 6.14438 17.1356C6.76876 17.1356 7.20001 16.7044 7.58438 16.2244C7.61251 16.1925 7.64251 16.1569 7.67063 16.125C7.63501 16.1813 7.60313 16.2431 7.58438 16.32C7.48876 16.8 8.06438 17.1844 8.54438 17.3756C8.92876 17.5669 9.36001 17.6156 9.69563 17.6156C10.1269 17.6156 10.4644 17.52 10.6556 17.4731C10.8206 17.4169 11.1769 17.2631 11.5575 17.01C11.5744 18.2363 11.5856 19.6838 11.6156 20.0156C11.76 21.2644 12.0956 22.1269 12.72 22.6069C13.2 22.9913 14.0644 23.04 14.1131 23.04C14.9756 23.04 16.32 22.4644 16.8956 21.5531C17.1844 21.12 17.28 20.7356 17.3756 20.2069C17.4713 19.92 17.5669 18.24 17.6156 17.9044C17.6813 17.3738 17.7319 16.8506 17.7825 16.3425C18.0994 16.425 18.4894 16.5131 18.9131 16.5131C19.68 16.5131 20.6888 15.9844 20.88 15.8869C21.2644 15.6 22.0313 14.9288 21.6956 14.3531C21.5044 14.0156 21.2156 14.0156 20.4956 14.1131C20.4956 14.1131 19.3444 14.2556 19.2469 14.2069C19.1775 14.1806 19.0706 14.1131 18.9506 14.025C19.2 13.6388 19.4213 13.2563 19.68 12.9131C20.2556 11.8088 20.5931 10.9444 20.8331 10.2731C21.2644 9.07313 21.5044 8.11126 21.6469 7.44001C21.9844 6.00001 22.08 5.32876 21.8869 4.56001C21.5044 3.21563 20.1113 2.06438 19.5356 1.72876C19.1513 1.53563 18.1931 0.960007 16.7531 0.960007ZM16.7531 1.92001C17.9531 1.92001 18.7688 2.40001 19.2 2.59126C19.7288 2.88001 20.9288 3.84001 21.0244 4.75126C21.0731 5.28001 21.12 5.80876 20.7844 7.20001C20.5931 7.87126 20.4 8.73563 19.9669 9.93563C19.7269 10.6069 19.44 11.4244 18.8644 12.4331C18.8494 12.4575 18.8325 12.4838 18.8175 12.51C18.8738 12.3075 18.9131 12.1444 18.9131 12.1444C19.0088 11.6644 19.0088 11.28 18.96 10.7044C18.9113 10.4156 18.8644 9.69563 18.8644 9.40688C18.8644 9.26438 19.0069 7.77563 19.0556 7.24688C19.1044 6.38438 18.5756 5.32688 18.4331 5.13563C17.7131 4.03126 17.3288 3.40876 16.56 2.78438C16.3688 2.62126 16.0406 2.34938 15.5944 2.07563C15.9469 1.98938 16.3369 1.92001 16.7531 1.92001ZM12.5119 2.11688C13.1381 2.13188 13.6688 2.30438 14.0644 2.44876C15.0731 2.78438 15.6956 3.31126 15.9844 3.55126C16.6088 4.08001 16.9444 4.60876 17.6644 5.71313C17.7169 5.81813 17.8538 6.04126 17.9625 6.35251C16.98 6.26251 16.3275 6.60751 15.9356 6.96001C15.36 7.44001 15.4069 8.16001 15.4556 8.68688C15.4556 9.07126 15.5531 9.55313 16.2731 11.1844C16.56 11.9044 16.8469 12.6713 17.1356 13.2C17.2856 13.4981 17.4694 13.7719 17.6663 14.0156C17.5519 14.0738 17.4356 14.1488 17.3269 14.2556C17.04 14.5913 16.9913 14.9288 16.8956 15.5531C16.8 16.0331 16.7044 17.04 16.6556 17.8556C16.6556 18.1913 16.5131 19.8244 16.4644 20.0644C16.32 20.5444 16.2713 20.7844 16.08 21.0731C15.7444 21.6 14.6888 22.0331 14.0644 21.9844C13.8731 21.9844 13.5844 21.9844 13.3444 21.7931C12.8156 21.4088 12.6244 20.5444 12.5756 19.8731C12.5269 19.3931 12.5756 15.9356 12.48 15.1669C12.4313 14.9756 12.3844 14.4956 12 14.16C11.8388 14.025 11.505 13.9556 11.19 13.9088C11.1938 13.7475 11.2031 13.5863 11.2331 13.44C11.28 13.1513 11.3756 13.0069 11.4731 12.7669C11.52 12.6244 11.6156 12.4331 11.7131 12.1931C12.1444 10.8488 12.0469 9.07126 11.8069 7.96688C11.76 7.87126 11.5669 7.10438 10.8956 6.67313C10.1756 6.24001 9.40688 6.48001 8.97563 6.62438C8.79751 6.67313 8.62126 6.75001 8.44501 6.84001C8.47501 6.63938 8.50126 6.43688 8.54438 6.24001C8.73563 5.28001 8.92876 4.46438 9.55313 3.64876C10.2244 2.83126 10.9913 2.30438 11.8556 2.16001C12.0844 2.12438 12.3038 2.11126 12.5119 2.11688ZM6.58501 2.20126C6.69751 2.19938 6.79313 2.20126 6.86438 2.20876C7.61438 2.24813 8.33251 2.42438 9.04501 2.72438C8.95688 2.82188 8.86876 2.91938 8.78438 3.02438C7.96876 3.98438 7.77563 4.99126 7.58438 6.00001C7.34438 7.20001 7.29563 8.44688 7.48688 9.69563L7.39313 10.6069C7.34438 11.0869 7.24688 12 7.77563 12.96C7.96126 13.2788 8.16563 13.5488 8.39063 13.7794C7.90313 14.4244 7.38563 15.0338 6.86438 15.6C6.57563 15.9356 6.33563 16.1756 6.14438 16.1756C6.09563 16.1756 5.90438 16.08 5.61563 15.7444C5.08688 15.1688 4.89563 14.5444 4.80001 14.3044C4.22438 12.5756 3.88876 11.4713 3.84001 11.3269C3.45563 9.79126 3.26438 9.02438 3.07126 7.92001C2.83126 6.38438 2.83126 5.61563 2.97563 4.99313C3.12001 4.32001 3.36001 3.79126 3.60001 3.40876C4.18876 2.48438 5.80501 2.22188 6.58501 2.20126ZM17.5988 7.26001C17.7525 7.26001 17.9194 7.27876 18.0956 7.31626C18.09 7.76438 17.9044 9.17063 17.9044 9.36001C17.9044 9.74438 18 10.5113 18 10.8C18.0488 11.3288 18.0488 11.6156 18 12C18 12 17.9288 12.3431 17.8556 12.5869C17.6325 12.0825 17.385 11.4806 17.0869 10.8C16.3669 9.16876 16.32 8.83313 16.32 8.59313C16.32 8.25563 16.32 7.82438 16.6069 7.63313C16.8769 7.39313 17.205 7.26376 17.5988 7.26001ZM10.1475 7.40063C10.2431 7.41188 10.3313 7.44001 10.4156 7.48688C10.8 7.68001 10.8956 8.16001 10.8956 8.16001C11.1356 9.21563 11.2313 10.8 10.8469 11.8556C10.8 12.0469 10.7044 12.1913 10.6556 12.3356C10.56 12.5756 10.4644 12.8156 10.3669 13.2469C10.3425 13.425 10.3313 13.6013 10.3256 13.7775C9.99376 13.7081 9.68063 13.59 9.45563 13.44C9.07126 13.2488 8.78438 12.9113 8.59313 12.5269C8.25563 11.8069 8.30438 11.1356 8.35313 10.7531L8.44688 9.64688C8.37938 9.10688 8.34751 8.56501 8.35501 8.02688C8.57626 7.83751 8.86501 7.64438 9.26438 7.53563C9.55313 7.46438 9.86813 7.36501 10.1475 7.40063ZM17.2256 7.72313C17.1 7.72876 16.9669 7.75126 16.8956 7.77563C16.7044 7.82438 16.6556 7.82438 16.6069 7.92001C16.56 8.01563 16.7044 8.16001 16.7531 8.25563C16.8 8.25563 16.9444 8.40001 17.1356 8.35313C17.28 8.30438 17.3756 8.20876 17.4244 8.16001C17.4731 8.11126 17.6644 7.87126 17.52 7.77563C17.4713 7.72688 17.3513 7.71563 17.2256 7.72313ZM10.0388 8.07188C9.98626 8.07563 9.93563 8.08876 9.88688 8.11313C9.84001 8.11313 9.74438 8.16001 9.69563 8.25563C9.64688 8.35126 9.69563 8.44688 9.74438 8.49563C9.84001 8.64001 9.98438 8.78438 10.2244 8.78438C10.2731 8.78438 10.4644 8.78438 10.6069 8.64001C10.6069 8.64001 10.7531 8.49563 10.7531 8.35313C10.7044 8.25563 10.6088 8.20876 10.4644 8.16001C10.3556 8.12438 10.1944 8.06063 10.0388 8.07188ZM9.15563 14.3531C9.45001 14.5106 9.80438 14.6381 10.1925 14.7263C10.0894 14.9325 9.94126 15.1031 9.79313 15.2156C9.45563 15.4556 9.02438 15.6 8.59313 15.6956C8.49563 15.6956 8.44876 15.7444 8.35313 15.7444C8.12063 15.81 7.89563 15.8831 7.74188 16.0425C8.21251 15.5194 8.68501 14.9419 9.15563 14.3531ZM18.4106 14.7375C18.6206 14.895 18.8269 15.0113 19.0069 15.0731C19.2956 15.1688 19.5356 15.1688 20.4 15.0731C20.2556 15.2156 19.8244 15.4556 19.2 15.5531C18.7988 15.5925 18.3 15.4969 17.895 15.3806C17.9325 15.1088 17.9756 14.9531 18.0469 14.88C18.0731 14.8556 18.2325 14.8069 18.4106 14.7375ZM11.1825 14.8819C11.2819 14.8988 11.3606 14.9119 11.3756 14.9269C11.4713 15.0244 11.52 15.2644 11.52 15.36C11.5256 15.4425 11.5294 15.6506 11.5331 15.795C11.1375 16.2581 10.5019 16.515 10.3669 16.56C10.1756 16.6556 9.60001 16.7513 9.02438 16.56C9.50438 16.4156 9.98438 16.2731 10.3669 15.9844C10.7025 15.7444 10.9913 15.3619 11.1825 14.8819Z" fill="black"/>
</svg>
