<svg width="24" height="24" viewBox="0 0 24 24" fill="none" xmlns="http://www.w3.org/2000/svg">
<path d="M12 0.959991C10.0519 0.959991 8.72999 1.42499 7.88999 2.09999C7.04999 2.77499 6.71999 3.64312 6.71999 4.36499V6.71999H11.52V7.19999H4.36499C3.48749 7.19999 2.59687 7.58062 1.96499 8.38499C1.33312 9.18937 0.959991 10.3894 0.959991 12C0.959991 13.6106 1.33312 14.8106 1.96499 15.615C2.59687 16.4194 3.48749 16.8 4.36499 16.8H6.71999V19.635C6.71999 20.3569 7.04999 21.225 7.88999 21.9C8.72999 22.575 10.0519 23.04 12 23.04C13.9481 23.04 15.27 22.575 16.11 21.9C16.95 21.225 17.28 20.3569 17.28 19.635V17.28H12.48V16.8H19.635C20.5125 16.8 21.4031 16.4194 22.035 15.615C22.6669 14.8106 23.04 13.6106 23.04 12C23.04 10.3894 22.6669 9.18937 22.035 8.38499C21.4031 7.58062 20.5125 7.19999 19.635 7.19999H17.28V4.36499C17.28 3.62437 16.9519 2.75437 16.11 2.08499C15.2681 1.41562 13.9462 0.959991 12 0.959991ZM12 1.91999C13.7981 1.91999 14.8875 2.33999 15.51 2.83499C16.1325 3.32999 16.32 3.90562 16.32 4.36499V10.08C16.32 10.875 15.675 11.52 14.88 11.52H9.11999C8.13187 11.52 7.28062 12.1294 6.91499 12.99C6.85312 13.1325 6.79687 13.2844 6.76499 13.44C6.73312 13.5956 6.71999 13.755 6.71999 13.92V15.84H4.36499C3.75562 15.84 3.19124 15.6019 2.72999 15.015C2.26874 14.4281 1.91999 13.4606 1.91999 12C1.91999 10.5394 2.26874 9.57187 2.72999 8.98499C3.19124 8.39812 3.75562 8.15999 4.36499 8.15999H12.48V5.75999H7.67999V4.36499C7.67999 3.93562 7.86562 3.35062 8.48999 2.84999C9.11437 2.34937 10.2037 1.91999 12 1.91999ZM9.59999 3.35999C9.07124 3.35999 8.63999 3.79124 8.63999 4.31999C8.63999 4.84874 9.07124 5.27999 9.59999 5.27999C10.1287 5.27999 10.56 4.84874 10.56 4.31999C10.56 3.79124 10.1287 3.35999 9.59999 3.35999ZM17.28 8.15999H19.635C20.2444 8.15999 20.8087 8.39812 21.27 8.98499C21.7312 9.57187 22.08 10.5394 22.08 12C22.08 13.4606 21.7312 14.4281 21.27 15.015C20.8087 15.6019 20.2444 15.84 19.635 15.84H11.52V18.24H16.32V19.635C16.32 20.0644 16.1344 20.6494 15.51 21.15C14.8856 21.6506 13.7962 22.08 12 22.08C10.2037 22.08 9.11437 21.6506 8.48999 21.15C7.86562 20.6494 7.67999 20.0644 7.67999 19.635V13.92C7.67999 13.8206 7.69124 13.7287 7.70999 13.635C7.84499 12.9787 8.42437 12.48 9.11999 12.48H14.88C16.1981 12.48 17.28 11.3981 17.28 10.08V8.15999ZM14.4 18.72C13.8712 18.72 13.44 19.1512 13.44 19.68C13.44 20.2087 13.8712 20.64 14.4 20.64C14.9287 20.64 15.36 20.2087 15.36 19.68C15.36 19.1512 14.9287 18.72 14.4 18.72Z" fill="black"/>
</svg>
