<svg width="24" height="24" viewBox="0 0 24 24" fill="none" xmlns="http://www.w3.org/2000/svg">
<path d="M8.54374 3.34531C8.05494 3.34531 7.60159 3.45473 7.19999 3.68593C5.9449 4.41056 5.46717 6.17643 5.72031 8.37499C3.69015 9.25506 2.39999 10.5509 2.39999 12C2.39999 13.4491 3.69015 14.7449 5.72031 15.625C5.4673 17.8235 5.9449 19.5894 7.19999 20.3141C7.60079 20.5453 8.05414 20.6547 8.54374 20.6547C9.58584 20.6547 10.7903 20.1317 12 19.2344C13.2098 20.1317 14.4157 20.6547 15.4578 20.6547C15.9466 20.6547 16.4 20.5453 16.8016 20.3141C18.0566 19.5894 18.5344 17.8235 18.2812 15.625C20.3106 14.7449 21.6 13.4487 21.6 12C21.6 10.5509 20.3098 9.25506 18.2797 8.37499C18.5327 6.17652 18.0551 4.41056 16.8 3.68593C16.3992 3.45393 15.9458 3.34531 15.4562 3.34531C14.4141 3.34531 13.2097 3.86832 12 4.76562C10.7902 3.86832 9.58548 3.34531 8.54374 3.34531ZM8.54374 4.74531C9.16905 4.74531 9.99596 5.07779 10.8937 5.69374C10.3659 6.19189 9.84892 6.75834 9.35156 7.38906C8.54486 7.50473 7.78427 7.67335 7.07968 7.88437C7.0759 7.83551 7.06694 7.78423 7.06406 7.73593C6.97846 6.31193 7.29119 5.25043 7.89999 4.89843C8.07999 4.79443 8.29014 4.74531 8.54374 4.74531ZM15.4562 4.74531C15.709 4.74531 15.92 4.79443 16.1 4.89843C16.7088 5.24963 17.0215 6.31193 16.9359 7.73593C16.933 7.78423 16.9241 7.83551 16.9203 7.88437C16.2153 7.67321 15.4541 7.50473 14.6469 7.38906C14.1495 6.75843 13.6341 6.19183 13.1062 5.69374C14.004 5.0779 14.8313 4.74531 15.4562 4.74531ZM12 6.58281C12.2169 6.78019 12.4322 6.98882 12.65 7.21718C12.4342 7.20993 12.2195 7.19999 12 7.19999C11.781 7.19999 11.5669 7.20997 11.3516 7.21718C11.5691 6.98906 11.7833 6.78001 12 6.58281ZM12 8.59999C12.6629 8.59999 13.2913 8.63705 13.8875 8.70156C14.2511 9.19575 14.6094 9.71824 14.9453 10.3C15.2673 10.8576 15.5519 11.4284 15.8031 12C15.5519 12.5719 15.2674 13.1436 14.9453 13.7016C14.6105 14.2816 14.253 14.8008 13.8906 15.2937C13.2734 15.3613 12.6402 15.4 12 15.4C11.337 15.4 10.7087 15.3629 10.1125 15.2984C9.7489 14.8042 9.39057 14.2833 9.05468 13.7016C8.73254 13.1436 8.44815 12.5719 8.19687 12C8.44797 11.4284 8.73273 10.8576 9.05468 10.3C9.38966 9.71992 9.74688 9.19923 10.1094 8.70624C10.7266 8.63871 11.3598 8.59999 12 8.59999ZM15.7969 9.03281C16.1143 9.10944 16.4194 9.19216 16.7062 9.28437C16.6413 9.57801 16.5618 9.87728 16.4719 10.1797C16.3689 9.98651 16.2691 9.79272 16.1578 9.59999C16.0433 9.40175 15.9162 9.22364 15.7969 9.03281ZM8.20156 9.03437C8.08264 9.22461 7.95632 9.40239 7.84218 9.59999C7.73093 9.79275 7.63103 9.98648 7.52812 10.1797C7.438 9.87666 7.35723 9.57703 7.29218 9.28281C7.58429 9.19051 7.88866 9.10878 8.20156 9.03437ZM5.97499 9.79687C6.14355 10.5086 6.37738 11.2463 6.67812 11.9984C6.37801 12.7487 6.14517 13.4852 5.97656 14.1953C4.58338 13.5226 3.79999 12.6851 3.79999 12C3.79999 11.2968 4.56149 10.4954 5.83749 9.85781C5.88105 9.83602 5.93049 9.81815 5.97499 9.79687ZM18.0234 9.80468C19.4166 10.4774 20.2 11.3149 20.2 12C20.2 12.7032 19.4385 13.5046 18.1625 14.1422C18.1189 14.164 18.0695 14.1818 18.025 14.2031C17.8563 13.491 17.6244 12.7526 17.3234 12C17.6232 11.2503 17.855 10.5142 18.0234 9.80468ZM12 10.4C11.116 10.4 10.4 11.116 10.4 12C10.4 12.884 11.116 13.6 12 13.6C12.884 13.6 13.6 12.884 13.6 12C13.6 11.116 12.884 10.4 12 10.4ZM7.52812 13.8203C7.6311 14.0136 7.73241 14.2072 7.84374 14.4C7.95812 14.5981 8.08393 14.7765 8.20312 14.9672C7.88572 14.8906 7.58059 14.8078 7.29374 14.7156C7.35878 14.4218 7.43813 14.1229 7.52812 13.8203ZM16.4719 13.8219C16.5619 14.1246 16.6428 14.4232 16.7078 14.7172C16.4157 14.8095 16.1113 14.8912 15.7984 14.9656C15.9173 14.7754 16.0437 14.5976 16.1578 14.4C16.2688 14.2076 16.3692 14.0147 16.4719 13.8219ZM7.07968 16.1156C7.78471 16.3268 8.54586 16.4953 9.35312 16.6109C9.85062 17.2419 10.3657 17.8095 10.8937 18.3078C9.99603 18.9236 9.16901 19.2562 8.54374 19.2562C8.29094 19.2562 8.07999 19.2056 7.89999 19.1016C7.29119 18.7504 6.97846 17.6896 7.06406 16.2656C7.06699 16.2168 7.07583 16.165 7.07968 16.1156ZM16.9203 16.1156C16.9241 16.165 16.933 16.2168 16.9359 16.2656C17.0215 17.6896 16.7088 18.7496 16.1 19.1016C15.92 19.2056 15.7098 19.2562 15.4562 19.2562C14.831 19.2562 14.004 18.9237 13.1062 18.3078C13.6344 17.8095 14.1508 17.242 14.6484 16.6109C15.4551 16.4953 16.2157 16.3266 16.9203 16.1156ZM11.35 16.7828C11.5658 16.7901 11.7805 16.8 12 16.8C12.2195 16.8 12.4342 16.7901 12.65 16.7828C12.4322 17.0112 12.2169 17.2198 12 17.4172C11.7831 17.2198 11.5678 17.0112 11.35 16.7828Z" fill="black"/>
</svg>
