<svg width="24" height="24" viewBox="0 0 24 24" fill="none" xmlns="http://www.w3.org/2000/svg">
<path d="M2.40001 1.92C2.27271 1.92001 2.15063 1.97059 2.06062 2.0606C1.9706 2.15062 1.92003 2.2727 1.92001 2.4V21.6C1.92003 21.7273 1.9706 21.8494 2.06062 21.9394C2.15063 22.0294 2.27271 22.08 2.40001 22.08H21.6C21.7273 22.08 21.8494 22.0294 21.9394 21.9394C22.0294 21.8494 22.08 21.7273 22.08 21.6V2.4C22.08 2.2727 22.0294 2.15062 21.9394 2.0606C21.8494 1.97059 21.7273 1.92001 21.6 1.92H2.40001ZM2.88001 2.88H21.12V21.12H2.88001V2.88ZM7.20001 11.04V12.6937H9.60001V20.16H11.52V12.6937H13.92V11.04H7.20001ZM17.6119 11.0447C16.1169 11.0387 14.4085 11.4918 14.4085 13.5956C14.4085 16.346 18.1144 16.3467 18.1144 17.5875C18.1144 17.7051 18.1643 18.5597 16.8563 18.5597C15.5483 18.5597 14.4581 17.7375 14.4581 17.7375V19.7334C14.4581 19.7334 20.1609 21.5779 20.1609 17.4187C20.1605 14.7187 16.4203 14.8538 16.4203 13.5122C16.4203 12.9923 16.7896 12.5062 17.8125 12.5062C18.8354 12.5062 19.7409 13.11 19.7409 13.11L19.8085 11.3316C19.8085 11.3316 18.7747 11.0493 17.6119 11.0447Z" fill="black"/>
</svg>
