<svg width="16" height="16" viewBox="0 0 16 16" fill="none" xmlns="http://www.w3.org/2000/svg">
<path d="M14.2222 1.6H10.5067C10.1333 0.672 9.15556 0 8 0C6.84444 0 5.86667 0.672 5.49333 1.6H1.77778C0.8 1.6 0 2.32 0 3.2V14.4C0 15.28 0.8 16 1.77778 16H14.2222C15.2 16 16 15.28 16 14.4V3.2C16 2.32 15.2 1.6 14.2222 1.6ZM8 1.6C8.48889 1.6 8.88889 1.96 8.88889 2.4C8.88889 2.84 8.48889 3.2 8 3.2C7.51111 3.2 7.11111 2.84 7.11111 2.4C7.11111 1.96 7.51111 1.6 8 1.6ZM8 4.8C9.47556 4.8 10.6667 5.872 10.6667 7.2C10.6667 8.528 9.47556 9.6 8 9.6C6.52444 9.6 5.33333 8.528 5.33333 7.2C5.33333 5.872 6.52444 4.8 8 4.8ZM13.3333 14.4H2.66667V13.28C2.66667 11.68 6.22222 10.8 8 10.8C9.77778 10.8 13.3333 11.68 13.3333 13.28V14.4Z" fill="black"/>
</svg>
