<svg width="16" height="16" viewBox="0 0 16 16" fill="none" xmlns="http://www.w3.org/2000/svg">
<path d="M14.4 0H1.6V1.33333H14.4V0ZM1.6 16H14.4V14.6667H1.6V16ZM14.4 2.66667H1.6C0.72 2.66667 0 3.26667 0 4V12C0 12.7333 0.72 13.3333 1.6 13.3333H14.4C15.28 13.3333 16 12.7333 16 12V4C16 3.26667 15.28 2.66667 14.4 2.66667ZM8 4.5C8.992 4.5 9.8 5.17333 9.8 6C9.8 6.82667 8.992 7.5 8 7.5C7.008 7.5 6.2 6.82667 6.2 6C6.2 5.17333 7.008 4.5 8 4.5ZM12 11.3333H4V10.3333C4 9.22 6.664 8.66667 8 8.66667C9.336 8.66667 12 9.22 12 10.3333V11.3333Z" fill="black"/>
</svg>
