<svg width="64" height="64" viewBox="0 0 64 64" fill="none" xmlns="http://www.w3.org/2000/svg">
<path d="M32 5.33333C17.28 5.33333 5.33337 17.28 5.33337 32C5.33337 46.72 17.28 58.6667 32 58.6667H45.3334V53.3333H32C20.4267 53.3333 10.6667 43.5733 10.6667 32C10.6667 20.4267 20.4267 10.6667 32 10.6667C43.5734 10.6667 53.3334 20.4267 53.3334 32V35.8133C53.3334 37.92 51.44 40 49.3334 40C47.2267 40 45.3334 37.92 45.3334 35.8133V32C45.3334 24.64 39.36 18.6667 32 18.6667C24.64 18.6667 18.6667 24.64 18.6667 32C18.6667 39.36 24.64 45.3333 32 45.3333C35.68 45.3333 39.04 43.84 41.44 41.4133C43.1734 43.7867 46.16 45.3333 49.3334 45.3333C54.5867 45.3333 58.6667 41.0667 58.6667 35.8133V32C58.6667 17.28 46.72 5.33333 32 5.33333ZM32 40C27.5734 40 24 36.4267 24 32C24 27.5733 27.5734 24 32 24C36.4267 24 40 27.5733 40 32C40 36.4267 36.4267 40 32 40Z" fill="#396667"/>
</svg>
