<svg width="64" height="64" viewBox="0 0 64 64" fill="none" xmlns="http://www.w3.org/2000/svg">
<path d="M29.0667 5.59999C16.8 6.93333 6.93336 16.8 5.60002 28.8C4.26669 41.3333 11.4667 52.5333 22.4 56.8C23.2 57.0667 24 56.5333 24 55.4667V51.2C24 51.2 22.9334 51.4667 21.6 51.4667C17.8667 51.4667 16.2667 48.2667 16 46.4C15.7334 45.3333 15.2 44.5333 14.4 43.7333C13.6 43.4667 13.3334 43.4667 13.3334 43.2C13.3334 42.6667 14.1334 42.6667 14.4 42.6667C16 42.6667 17.3334 44.5333 17.8667 45.3333C19.2 47.4667 20.8 48 21.6 48C22.6667 48 23.4667 47.7333 24 47.4667C24.2667 45.6 25.0667 43.7333 26.6667 42.6667C20.5334 41.3333 16 37.8667 16 32C16 29.0667 17.3334 26.1333 19.2 24C18.9334 23.4667 18.6667 22.1333 18.6667 20.2667C18.6667 19.2 18.6667 17.6 19.4667 16C19.4667 16 23.2 16 26.9334 19.4667C28.2667 18.9333 30.1334 18.6667 32 18.6667C33.8667 18.6667 35.7334 18.9333 37.3334 19.4667C40.8 16 44.8 16 44.8 16C45.3334 17.6 45.3334 19.2 45.3334 20.2667C45.3334 22.4 45.0667 23.4667 44.8 24C46.6667 26.1333 48 28.8 48 32C48 37.8667 43.4667 41.3333 37.3334 42.6667C38.9334 44 40 46.4 40 48.8V55.7333C40 56.5333 40.8 57.3333 41.8667 57.0667C51.7334 53.0667 58.6667 43.4667 58.6667 32.2667C58.6667 16.2667 45.0667 3.73333 29.0667 5.59999Z" fill="#396667"/>
</svg>
