<svg width="64" height="64" viewBox="0 0 64 64" fill="none" xmlns="http://www.w3.org/2000/svg">
<path d="M13.3333 8C10.3867 8 8 10.3867 8 13.3333V50.6667C8 53.6133 10.3867 56 13.3333 56H50.6667C53.6133 56 56 53.6133 56 50.6667V13.3333C56 10.3867 53.6133 8 50.6667 8H13.3333ZM13.3333 13.3333H50.6667V50.6667H13.3333V13.3333ZM20.7448 16.8438C18.4595 16.8438 17.0885 18.2175 17.0885 20.0469C17.0885 21.8762 18.4596 23.2448 20.5156 23.2448C22.801 23.2448 24.1719 21.8762 24.1719 20.0469C24.1719 18.2175 22.8008 16.8438 20.7448 16.8438ZM17.2708 26.6667V45.3333H24V26.6667H17.2708ZM29.5521 26.6667V45.3333H36.2812V35.1302C36.2812 32.0929 38.4483 31.6562 39.099 31.6562C39.7496 31.6562 41.4896 32.3089 41.4896 35.1302V45.3333H48V35.1302C48 29.2715 45.3966 26.6667 42.1406 26.6667C38.8846 26.6667 37.1479 27.7508 36.2812 29.2708V26.6667H29.5521Z" fill="#396667"/>
</svg>
