<svg width="18" height="18" viewBox="0 0 18 18" fill="none" xmlns="http://www.w3.org/2000/svg">
<g clip-path="url(#clip0_51110_4515)">
<path d="M13.5 11.52C12.636 11.52 11.862 11.934 11.376 12.564L7.00205 10.026C7.27205 9.36001 7.27205 8.62201 7.00205 7.95601L11.376 5.41801C11.862 6.04801 12.636 6.46201 13.5 6.46201C14.994 6.46201 16.2 5.25601 16.2 3.76201C16.2 2.26801 14.994 1.06201 13.5 1.06201C12.006 1.06201 10.8 2.26801 10.8 3.76201C10.8 4.12201 10.872 4.48201 10.998 4.78801L6.62405 7.34401C6.12005 6.71401 5.36405 6.30001 4.50005 6.30001C3.00605 6.30001 1.80005 7.50601 1.80005 9.00001C1.80005 10.494 3.00605 11.7 4.50005 11.7C5.36405 11.7 6.13805 11.286 6.62405 10.656L10.998 13.194C10.872 13.5 10.8 13.86 10.8 14.22C10.8 15.714 12.006 16.92 13.5 16.92C14.994 16.92 16.2 15.714 16.2 14.22C16.2 12.726 14.994 11.52 13.5 11.52ZM13.5 1.80001C14.598 1.80001 15.48 2.68201 15.48 3.78001C15.48 4.87801 14.598 5.76001 13.5 5.76001C12.402 5.76001 11.52 4.87801 11.52 3.78001C11.52 2.68201 12.402 1.80001 13.5 1.80001ZM4.50005 10.98C3.40205 10.98 2.52005 10.098 2.52005 9.00001C2.52005 7.90201 3.40205 7.02001 4.50005 7.02001C5.59805 7.02001 6.48005 7.90201 6.48005 9.00001C6.48005 10.098 5.59805 10.98 4.50005 10.98ZM13.5 16.2C12.402 16.2 11.52 15.318 11.52 14.22C11.52 13.122 12.402 12.24 13.5 12.24C14.598 12.24 15.48 13.122 15.48 14.22C15.48 15.318 14.598 16.2 13.5 16.2Z" fill="#366A20"/>
<path d="M295.92 -91.8V211.32H-25.2V-91.8H295.92ZM297.36 -93.24H-26.64V212.76H297.36V-93.24Z" fill="#0000FF"/>
</g>
<defs>
<clipPath id="clip0_51110_4515">
<rect width="18" height="18" fill="white"/>
</clipPath>
</defs>
</svg>
