<svg width="18" height="18" viewBox="0 0 18 18" fill="none" xmlns="http://www.w3.org/2000/svg">
<g clip-path="url(#clip0_51110_3623)">
<path d="M11.4785 2.55933C11.4785 1.17417 10.35 0.0456543 8.96484 0.0456543C7.57969 0.0456543 6.45117 1.17417 6.45117 2.55933C6.45117 3.70191 7.21758 4.66519 8.26172 4.97105V16.7343C8.26172 17.1211 8.57812 17.4375 8.96484 17.4375C9.35156 17.4375 9.66797 17.1211 9.66797 16.7343V4.97105C10.7121 4.66519 11.4785 3.70191 11.4785 2.55933ZM8.96484 3.66675C8.35312 3.66675 7.85742 3.17105 7.85742 2.55933C7.85742 1.94761 8.35312 1.45191 8.96484 1.45191C9.57656 1.45191 10.0723 1.94761 10.0723 2.55933C10.0723 3.17105 9.57656 3.66675 8.96484 3.66675Z" fill="#366A20"/>
<path d="M15.4934 3.73706C14.2243 3.73706 13.1731 4.68276 13.0043 5.9062H12.3047C11.7739 5.9062 11.352 6.14878 11.1164 6.58472C10.9231 6.94683 10.8985 7.37222 10.8985 7.66402V17.2968C10.8985 17.6836 11.2149 18 11.6016 18C11.9883 18 12.3047 17.6836 12.3047 17.2968V7.66402C12.3047 7.47769 12.3188 7.37222 12.3329 7.31245H13.2188C13.6196 8.17027 14.4879 8.76441 15.4969 8.76441C16.8821 8.76441 18.0106 7.63589 18.0106 6.25074C18.0106 4.86558 16.8786 3.73706 15.4934 3.73706ZM15.4934 7.35816C14.8817 7.35816 14.386 6.86245 14.386 6.25074C14.386 5.63902 14.8817 5.14331 15.4934 5.14331C16.1051 5.14331 16.6008 5.63902 16.6008 6.25074C16.6008 6.86245 16.1051 7.35816 15.4934 7.35816ZM5.27348 5.9062H4.97466C4.80591 4.68276 3.75473 3.73706 2.48559 3.73706C1.10044 3.73706 -0.0280762 4.86558 -0.0280762 6.25074C-0.0280762 7.63589 1.10044 8.76441 2.48559 8.76441C3.49106 8.76441 4.36294 8.17027 4.76372 7.31245H5.27348C5.46684 7.31245 5.62505 7.47066 5.62505 7.66402V17.2968C5.62505 17.6836 5.94145 18 6.32817 18C6.71489 18 7.03129 17.6836 7.03129 17.2968V7.66402C7.03129 6.6937 6.24379 5.9062 5.27348 5.9062ZM2.48559 7.35816C1.87388 7.35816 1.37817 6.86245 1.37817 6.25074C1.37817 5.63902 1.87388 5.14331 2.48559 5.14331C3.09731 5.14331 3.59302 5.63902 3.59302 6.25074C3.59302 6.86245 3.09731 7.35816 2.48559 7.35816Z" fill="#366A20"/>
</g>
<defs>
<clipPath id="clip0_51110_3623">
<rect width="18" height="18" fill="white"/>
</clipPath>
</defs>
</svg>
