<svg width="16" height="16" viewBox="0 0 16 16" fill="none" xmlns="http://www.w3.org/2000/svg">
<path fill-rule="evenodd" clip-rule="evenodd" d="M9.33325 4.00001V2.66668H6.66659V4.00001H9.33325ZM2.66659 5.33334V12.6667H13.3333V5.33334H2.66659ZM13.3333 4.00001C14.0733 4.00001 14.6666 4.59334 14.6666 5.33334V12.6667C14.6666 13.4067 14.0733 14 13.3333 14H2.66659C1.92659 14 1.33325 13.4067 1.33325 12.6667L1.33992 5.33334C1.33992 4.59334 1.92659 4.00001 2.66659 4.00001H5.33325V2.66668C5.33325 1.92668 5.92659 1.33334 6.66659 1.33334H9.33325C10.0733 1.33334 10.6666 1.92668 10.6666 2.66668V4.00001H13.3333Z" fill="black"/>
</svg>
